%TF.GenerationSoftware,KiCad,Pcbnew,9.0.4*%
%TF.CreationDate,2026-02-16T16:21:54-03:00*%
%TF.ProjectId,arduinoToEsp32,61726475-696e-46f5-946f-45737033322e,rev?*%
%TF.SameCoordinates,Original*%
%TF.FileFunction,Legend,Top*%
%TF.FilePolarity,Positive*%
%FSLAX46Y46*%
G04 Gerber Fmt 4.6, Leading zero omitted, Abs format (unit mm)*
G04 Created by KiCad (PCBNEW 9.0.4) date 2026-02-16 16:21:54*
%MOMM*%
%LPD*%
G01*
G04 APERTURE LIST*
%ADD10C,0.150000*%
%ADD11C,0.120000*%
G04 APERTURE END LIST*
D10*
X161337666Y-76202819D02*
X161337666Y-76917104D01*
X161337666Y-76917104D02*
X161290047Y-77059961D01*
X161290047Y-77059961D02*
X161194809Y-77155200D01*
X161194809Y-77155200D02*
X161051952Y-77202819D01*
X161051952Y-77202819D02*
X160956714Y-77202819D01*
X162337666Y-77202819D02*
X161766238Y-77202819D01*
X162051952Y-77202819D02*
X162051952Y-76202819D01*
X162051952Y-76202819D02*
X161956714Y-76345676D01*
X161956714Y-76345676D02*
X161861476Y-76440914D01*
X161861476Y-76440914D02*
X161766238Y-76488533D01*
X160167819Y-67651238D02*
X160167819Y-68222666D01*
X160167819Y-67936952D02*
X159167819Y-67936952D01*
X159167819Y-67936952D02*
X159310676Y-68032190D01*
X159310676Y-68032190D02*
X159405914Y-68127428D01*
X159405914Y-68127428D02*
X159453533Y-68222666D01*
X160167819Y-67222666D02*
X159167819Y-67222666D01*
X159786866Y-67127428D02*
X160167819Y-66841714D01*
X159501152Y-66841714D02*
X159882104Y-67222666D01*
X159167819Y-66508380D02*
X159167819Y-65889333D01*
X159167819Y-65889333D02*
X159548771Y-66222666D01*
X159548771Y-66222666D02*
X159548771Y-66079809D01*
X159548771Y-66079809D02*
X159596390Y-65984571D01*
X159596390Y-65984571D02*
X159644009Y-65936952D01*
X159644009Y-65936952D02*
X159739247Y-65889333D01*
X159739247Y-65889333D02*
X159977342Y-65889333D01*
X159977342Y-65889333D02*
X160072580Y-65936952D01*
X160072580Y-65936952D02*
X160120200Y-65984571D01*
X160120200Y-65984571D02*
X160167819Y-66079809D01*
X160167819Y-66079809D02*
X160167819Y-66365523D01*
X160167819Y-66365523D02*
X160120200Y-66460761D01*
X160120200Y-66460761D02*
X160072580Y-66508380D01*
X154960819Y-67651238D02*
X154960819Y-68222666D01*
X154960819Y-67936952D02*
X153960819Y-67936952D01*
X153960819Y-67936952D02*
X154103676Y-68032190D01*
X154103676Y-68032190D02*
X154198914Y-68127428D01*
X154198914Y-68127428D02*
X154246533Y-68222666D01*
X154960819Y-67222666D02*
X153960819Y-67222666D01*
X154579866Y-67127428D02*
X154960819Y-66841714D01*
X154294152Y-66841714D02*
X154675104Y-67222666D01*
X154960819Y-65889333D02*
X154960819Y-66460761D01*
X154960819Y-66175047D02*
X153960819Y-66175047D01*
X153960819Y-66175047D02*
X154103676Y-66270285D01*
X154103676Y-66270285D02*
X154198914Y-66365523D01*
X154198914Y-66365523D02*
X154246533Y-66460761D01*
X165882819Y-67778238D02*
X165882819Y-68349666D01*
X165882819Y-68063952D02*
X164882819Y-68063952D01*
X164882819Y-68063952D02*
X165025676Y-68159190D01*
X165025676Y-68159190D02*
X165120914Y-68254428D01*
X165120914Y-68254428D02*
X165168533Y-68349666D01*
X165882819Y-67349666D02*
X164882819Y-67349666D01*
X165501866Y-67254428D02*
X165882819Y-66968714D01*
X165216152Y-66968714D02*
X165597104Y-67349666D01*
X164978057Y-66587761D02*
X164930438Y-66540142D01*
X164930438Y-66540142D02*
X164882819Y-66444904D01*
X164882819Y-66444904D02*
X164882819Y-66206809D01*
X164882819Y-66206809D02*
X164930438Y-66111571D01*
X164930438Y-66111571D02*
X164978057Y-66063952D01*
X164978057Y-66063952D02*
X165073295Y-66016333D01*
X165073295Y-66016333D02*
X165168533Y-66016333D01*
X165168533Y-66016333D02*
X165311390Y-66063952D01*
X165311390Y-66063952D02*
X165882819Y-66635380D01*
X165882819Y-66635380D02*
X165882819Y-66016333D01*
D11*
%TO.C,1k3*%
X162433000Y-60476000D02*
X162433000Y-62436000D01*
X162433000Y-73636000D02*
X162433000Y-71676000D01*
X160713000Y-71676000D02*
X164153000Y-71676000D01*
X164153000Y-62436000D01*
X160713000Y-62436000D01*
X160713000Y-71676000D01*
%TO.C,1k1*%
X157226000Y-60476000D02*
X157226000Y-62436000D01*
X157226000Y-73636000D02*
X157226000Y-71676000D01*
X155506000Y-71676000D02*
X158946000Y-71676000D01*
X158946000Y-62436000D01*
X155506000Y-62436000D01*
X155506000Y-71676000D01*
%TO.C,1k2*%
X168148000Y-60603000D02*
X168148000Y-62563000D01*
X168148000Y-73763000D02*
X168148000Y-71803000D01*
X166428000Y-71803000D02*
X169868000Y-71803000D01*
X169868000Y-62563000D01*
X166428000Y-62563000D01*
X166428000Y-71803000D01*
%TD*%
M02*
