%TF.GenerationSoftware,KiCad,Pcbnew,9.0.4*%
%TF.CreationDate,2026-02-16T12:31:14-03:00*%
%TF.ProjectId,arduinoToEsp32,61726475-696e-46f5-946f-45737033322e,rev?*%
%TF.SameCoordinates,Original*%
%TF.FileFunction,Copper,L2,Bot*%
%TF.FilePolarity,Positive*%
%FSLAX46Y46*%
G04 Gerber Fmt 4.6, Leading zero omitted, Abs format (unit mm)*
G04 Created by KiCad (PCBNEW 9.0.4) date 2026-02-16 12:31:14*
%MOMM*%
%LPD*%
G01*
G04 APERTURE LIST*
G04 Aperture macros list*
%AMRoundRect*
0 Rectangle with rounded corners*
0 $1 Rounding radius*
0 $2 $3 $4 $5 $6 $7 $8 $9 X,Y pos of 4 corners*
0 Add a 4 corners polygon primitive as box body*
4,1,4,$2,$3,$4,$5,$6,$7,$8,$9,$2,$3,0*
0 Add four circle primitives for the rounded corners*
1,1,$1+$1,$2,$3*
1,1,$1+$1,$4,$5*
1,1,$1+$1,$6,$7*
1,1,$1+$1,$8,$9*
0 Add four rect primitives between the rounded corners*
20,1,$1+$1,$2,$3,$4,$5,0*
20,1,$1+$1,$4,$5,$6,$7,0*
20,1,$1+$1,$6,$7,$8,$9,0*
20,1,$1+$1,$8,$9,$2,$3,0*%
G04 Aperture macros list end*
%ADD10C,0.187500*%
%TA.AperFunction,ComponentPad*%
%ADD11RoundRect,0.250000X-1.050000X-1.050000X1.050000X-1.050000X1.050000X1.050000X-1.050000X1.050000X0*%
%TD*%
%TA.AperFunction,ComponentPad*%
%ADD12C,2.600000*%
%TD*%
%TA.AperFunction,ComponentPad*%
%ADD13C,2.000000*%
%TD*%
%TA.AperFunction,ComponentPad*%
%ADD14C,1.600000*%
%TD*%
%TA.AperFunction,Conductor*%
%ADD15C,2.000000*%
%TD*%
G04 APERTURE END LIST*
D10*
G36*
X154657651Y-69309695D02*
G01*
X154657651Y-69176826D01*
X154579519Y-69208415D01*
X154509396Y-69229705D01*
X154440075Y-69242911D01*
X154374818Y-69247168D01*
X154300645Y-69241600D01*
X154243926Y-69226576D01*
X154200917Y-69203815D01*
X154167036Y-69170952D01*
X154146864Y-69130666D01*
X154139795Y-69080534D01*
X154144761Y-69037688D01*
X154158484Y-69004729D01*
X154180461Y-68979295D01*
X154209983Y-68960661D01*
X154258873Y-68941955D01*
X154334518Y-68924096D01*
X154417866Y-68906938D01*
X154495729Y-68887607D01*
X154558035Y-68863391D01*
X154607300Y-68835068D01*
X154645622Y-68803013D01*
X154677077Y-68763745D01*
X154699858Y-68718319D01*
X154714075Y-68665545D01*
X154719078Y-68603833D01*
X154712267Y-68530865D01*
X154693090Y-68470485D01*
X154662408Y-68420167D01*
X154619671Y-68378213D01*
X154568831Y-68346860D01*
X154505225Y-68322859D01*
X154426141Y-68307168D01*
X154328351Y-68301460D01*
X154255007Y-68305509D01*
X154174294Y-68318252D01*
X154092436Y-68338698D01*
X154005217Y-68367894D01*
X154005217Y-68508578D01*
X154089775Y-68467182D01*
X154169837Y-68438419D01*
X154250535Y-68420587D01*
X154328351Y-68414789D01*
X154406059Y-68420743D01*
X154465548Y-68436829D01*
X154510739Y-68461256D01*
X154538795Y-68486938D01*
X154558561Y-68516949D01*
X154570710Y-68552139D01*
X154574975Y-68593880D01*
X154569451Y-68642024D01*
X154553960Y-68680485D01*
X154528874Y-68711483D01*
X154495576Y-68735180D01*
X154446690Y-68756689D01*
X154377565Y-68775047D01*
X154293546Y-68791533D01*
X154214714Y-68811164D01*
X154153089Y-68834194D01*
X154105733Y-68859855D01*
X154070125Y-68887704D01*
X154040696Y-68922518D01*
X154019308Y-68963580D01*
X154005883Y-69012130D01*
X154001126Y-69069848D01*
X154007459Y-69135696D01*
X154025552Y-69191948D01*
X154054954Y-69240527D01*
X154096442Y-69282706D01*
X154145660Y-69315205D01*
X154204535Y-69339459D01*
X154274931Y-69354957D01*
X154359125Y-69360497D01*
X154431045Y-69357362D01*
X154505304Y-69347796D01*
X154579873Y-69332112D01*
X154657651Y-69309695D01*
G37*
G36*
X155343697Y-68305222D02*
G01*
X155415170Y-68316481D01*
X155485295Y-68334831D01*
X155553900Y-68360078D01*
X155553900Y-68477315D01*
X155486100Y-68446305D01*
X155418956Y-68424558D01*
X155350143Y-68411402D01*
X155278577Y-68406973D01*
X155216383Y-68411782D01*
X155164273Y-68425308D01*
X155120452Y-68446716D01*
X155083549Y-68475911D01*
X155053734Y-68512278D01*
X155030503Y-68556750D01*
X155014085Y-68610871D01*
X155005331Y-68676617D01*
X155583270Y-68676617D01*
X155583270Y-68737678D01*
X155577016Y-68822658D01*
X155559382Y-68894503D01*
X155531453Y-68955452D01*
X155493450Y-69007261D01*
X155445391Y-69050045D01*
X155389762Y-69080740D01*
X155325070Y-69099790D01*
X155249207Y-69106484D01*
X155180514Y-69101679D01*
X155119939Y-69087897D01*
X155066222Y-69065716D01*
X155018347Y-69035201D01*
X154975594Y-68995904D01*
X154932566Y-68938061D01*
X154901045Y-68870338D01*
X154881198Y-68790840D01*
X154879909Y-68773643D01*
X155009422Y-68773643D01*
X155022572Y-68843034D01*
X155047026Y-68897972D01*
X155082145Y-68941376D01*
X155127527Y-68973749D01*
X155182752Y-68993832D01*
X155250550Y-69000972D01*
X155309785Y-68993773D01*
X155358755Y-68973232D01*
X155399844Y-68939300D01*
X155430494Y-68895178D01*
X155449980Y-68841072D01*
X155457546Y-68774314D01*
X155009422Y-68773643D01*
X154879909Y-68773643D01*
X154874172Y-68697133D01*
X154878896Y-68623912D01*
X154892400Y-68559605D01*
X154914005Y-68502905D01*
X154943487Y-68452726D01*
X154981090Y-68408255D01*
X155025585Y-68370735D01*
X155075872Y-68341291D01*
X155132776Y-68319697D01*
X155197399Y-68306189D01*
X155271067Y-68301460D01*
X155343697Y-68305222D01*
G37*
G36*
X156232895Y-68969709D02*
G01*
X156186794Y-68987416D01*
X156131779Y-68993156D01*
X156079411Y-68988424D01*
X156035737Y-68975073D01*
X155999057Y-68953712D01*
X155968197Y-68924035D01*
X155944635Y-68888422D01*
X155926836Y-68844655D01*
X155915323Y-68791057D01*
X155911166Y-68725588D01*
X155911166Y-68321000D01*
X155784771Y-68321000D01*
X155784771Y-69086945D01*
X155911166Y-69086945D01*
X155911166Y-68969709D01*
X155940893Y-69012805D01*
X155975162Y-69046821D01*
X156014298Y-69072779D01*
X156057908Y-69090943D01*
X156108889Y-69102421D01*
X156168659Y-69106484D01*
X156197358Y-69104531D01*
X156232224Y-69098669D01*
X156232895Y-68969709D01*
G37*
G36*
X156364970Y-69086945D02*
G01*
X156490694Y-69086945D01*
X156490694Y-68321000D01*
X156364970Y-68321000D01*
X156364970Y-69086945D01*
G37*
G36*
X156364970Y-69383944D02*
G01*
X156490694Y-69383944D01*
X156490694Y-69223721D01*
X156364970Y-69223721D01*
X156364970Y-69383944D01*
G37*
G36*
X157023390Y-68305504D02*
G01*
X157075256Y-68316882D01*
X157119252Y-68334799D01*
X157159013Y-68360547D01*
X157194681Y-68394667D01*
X157226536Y-68438236D01*
X157226536Y-68321000D01*
X157352199Y-68321000D01*
X157352199Y-68759415D01*
X157346157Y-68847812D01*
X157329546Y-68918717D01*
X157303998Y-68975378D01*
X157270195Y-69020389D01*
X157226799Y-69056254D01*
X157172689Y-69083009D01*
X157105517Y-69100246D01*
X157022227Y-69106484D01*
X156960502Y-69103367D01*
X156895892Y-69093784D01*
X156830861Y-69078163D01*
X156761986Y-69055682D01*
X156761986Y-68938445D01*
X156820714Y-68965855D01*
X156881543Y-68985340D01*
X156944383Y-68997042D01*
X157009282Y-69000972D01*
X157076532Y-68994985D01*
X157128859Y-68978600D01*
X157169505Y-68953161D01*
X157200659Y-68917742D01*
X157219744Y-68873596D01*
X157226536Y-68818034D01*
X157226536Y-68805577D01*
X157050315Y-68805577D01*
X156962634Y-68800628D01*
X156892379Y-68787087D01*
X156836495Y-68766506D01*
X156792394Y-68739815D01*
X156755285Y-68703820D01*
X156728621Y-68660417D01*
X156711931Y-68608097D01*
X156706805Y-68553274D01*
X156831718Y-68553274D01*
X156835848Y-68594615D01*
X156847270Y-68627148D01*
X156865325Y-68652820D01*
X156890458Y-68672831D01*
X156931894Y-68690065D01*
X156998942Y-68702781D01*
X157101545Y-68707880D01*
X157226536Y-68707880D01*
X157226536Y-68679731D01*
X157222155Y-68618020D01*
X157209762Y-68565357D01*
X157190095Y-68520255D01*
X157163338Y-68481528D01*
X157129199Y-68448940D01*
X157090555Y-68425940D01*
X157046499Y-68411869D01*
X156995666Y-68406973D01*
X156946561Y-68411793D01*
X156907292Y-68425199D01*
X156875742Y-68446479D01*
X156851594Y-68475392D01*
X156836898Y-68510379D01*
X156831718Y-68553274D01*
X156706805Y-68553274D01*
X156705994Y-68544604D01*
X156710669Y-68489996D01*
X156723989Y-68443170D01*
X156745449Y-68402694D01*
X156775297Y-68367528D01*
X156811759Y-68339376D01*
X156854224Y-68318864D01*
X156903849Y-68306001D01*
X156962143Y-68301460D01*
X157023390Y-68305504D01*
G37*
G36*
X157611585Y-69383944D02*
G01*
X157737309Y-69383944D01*
X157737309Y-68321000D01*
X157611585Y-68321000D01*
X157611585Y-69383944D01*
G37*
G36*
X157936916Y-68762591D02*
G01*
X158305113Y-68762591D01*
X158305113Y-68649262D01*
X157936916Y-68649262D01*
X157936916Y-68762591D01*
G37*
G36*
X158775100Y-68305504D02*
G01*
X158826965Y-68316882D01*
X158870962Y-68334799D01*
X158910723Y-68360547D01*
X158946391Y-68394667D01*
X158978246Y-68438236D01*
X158978246Y-68321000D01*
X159103909Y-68321000D01*
X159103909Y-68759415D01*
X159097867Y-68847812D01*
X159081256Y-68918717D01*
X159055708Y-68975378D01*
X159021904Y-69020389D01*
X158978509Y-69056254D01*
X158924399Y-69083009D01*
X158857226Y-69100246D01*
X158773937Y-69106484D01*
X158712211Y-69103367D01*
X158647602Y-69093784D01*
X158582571Y-69078163D01*
X158513696Y-69055682D01*
X158513696Y-68938445D01*
X158572424Y-68965855D01*
X158633253Y-68985340D01*
X158696092Y-68997042D01*
X158760992Y-69000972D01*
X158828242Y-68994985D01*
X158880568Y-68978600D01*
X158921215Y-68953161D01*
X158952369Y-68917742D01*
X158971454Y-68873596D01*
X158978246Y-68818034D01*
X158978246Y-68805577D01*
X158802025Y-68805577D01*
X158714344Y-68800628D01*
X158644089Y-68787087D01*
X158588204Y-68766506D01*
X158544104Y-68739815D01*
X158506995Y-68703820D01*
X158480331Y-68660417D01*
X158463641Y-68608097D01*
X158458514Y-68553274D01*
X158583427Y-68553274D01*
X158587558Y-68594615D01*
X158598980Y-68627148D01*
X158617035Y-68652820D01*
X158642168Y-68672831D01*
X158683603Y-68690065D01*
X158750652Y-68702781D01*
X158853255Y-68707880D01*
X158978246Y-68707880D01*
X158978246Y-68679731D01*
X158973864Y-68618020D01*
X158961472Y-68565357D01*
X158941805Y-68520255D01*
X158915048Y-68481528D01*
X158880909Y-68448940D01*
X158842265Y-68425940D01*
X158798208Y-68411869D01*
X158747375Y-68406973D01*
X158698271Y-68411793D01*
X158659002Y-68425199D01*
X158627452Y-68446479D01*
X158603304Y-68475392D01*
X158588608Y-68510379D01*
X158583427Y-68553274D01*
X158458514Y-68553274D01*
X158457703Y-68544604D01*
X158462378Y-68489996D01*
X158475699Y-68443170D01*
X158497159Y-68402694D01*
X158527007Y-68367528D01*
X158563468Y-68339376D01*
X158605934Y-68318864D01*
X158655558Y-68306001D01*
X158713853Y-68301460D01*
X158775100Y-68305504D01*
G37*
G36*
X159806657Y-68969709D02*
G01*
X159760556Y-68987416D01*
X159705540Y-68993156D01*
X159653173Y-68988424D01*
X159609498Y-68975073D01*
X159572818Y-68953712D01*
X159541958Y-68924035D01*
X159518396Y-68888422D01*
X159500597Y-68844655D01*
X159489085Y-68791057D01*
X159484928Y-68725588D01*
X159484928Y-68321000D01*
X159358532Y-68321000D01*
X159358532Y-69086945D01*
X159484928Y-69086945D01*
X159484928Y-68969709D01*
X159514654Y-69012805D01*
X159548923Y-69046821D01*
X159588059Y-69072779D01*
X159631669Y-69090943D01*
X159682651Y-69102421D01*
X159742421Y-69106484D01*
X159771119Y-69104531D01*
X159805985Y-69098669D01*
X159806657Y-68969709D01*
G37*
G36*
X160227235Y-68305367D02*
G01*
X160275201Y-68316460D01*
X160316697Y-68334128D01*
X160354012Y-68359253D01*
X160387289Y-68392306D01*
X160416775Y-68434328D01*
X160416775Y-68321000D01*
X160542499Y-68321000D01*
X160542499Y-69383944D01*
X160416775Y-69383944D01*
X160416775Y-68973616D01*
X160387286Y-69015635D01*
X160354009Y-69048666D01*
X160316697Y-69073756D01*
X160275198Y-69091458D01*
X160227232Y-69102570D01*
X160171555Y-69106484D01*
X160104829Y-69099418D01*
X160046022Y-69078887D01*
X159993361Y-69044791D01*
X159945753Y-68995598D01*
X159908995Y-68938390D01*
X159881864Y-68871897D01*
X159864736Y-68794443D01*
X159858680Y-68703972D01*
X159988495Y-68703972D01*
X159992619Y-68774348D01*
X160004104Y-68832924D01*
X160021929Y-68881578D01*
X160045526Y-68921898D01*
X160077045Y-68956786D01*
X160112991Y-68981084D01*
X160154242Y-68995841D01*
X160202269Y-69000972D01*
X160250328Y-68995845D01*
X160291656Y-68981090D01*
X160327715Y-68956791D01*
X160359378Y-68921898D01*
X160383137Y-68881555D01*
X160401075Y-68832892D01*
X160412628Y-68774324D01*
X160416775Y-68703972D01*
X160412629Y-68633623D01*
X160401077Y-68575043D01*
X160383140Y-68526359D01*
X160359378Y-68485986D01*
X160327719Y-68451123D01*
X160291662Y-68426841D01*
X160250332Y-68412097D01*
X160202269Y-68406973D01*
X160154238Y-68412100D01*
X160112986Y-68426848D01*
X160077041Y-68451128D01*
X160045526Y-68485986D01*
X160021927Y-68526335D01*
X160004102Y-68575011D01*
X159992618Y-68633599D01*
X159988495Y-68703972D01*
X159858680Y-68703972D01*
X159864736Y-68613502D01*
X159881864Y-68536047D01*
X159908995Y-68469554D01*
X159945753Y-68412346D01*
X159993361Y-68363154D01*
X160046022Y-68329058D01*
X160104829Y-68308526D01*
X160171555Y-68301460D01*
X160227235Y-68305367D01*
G37*
G36*
X160788452Y-68623006D02*
G01*
X160788452Y-69086945D01*
X160914115Y-69086945D01*
X160914115Y-68627769D01*
X160919647Y-68556437D01*
X160934377Y-68503648D01*
X160956430Y-68465103D01*
X160988299Y-68435685D01*
X161029662Y-68417458D01*
X161083558Y-68410881D01*
X161133605Y-68415262D01*
X161176231Y-68427718D01*
X161212829Y-68447764D01*
X161244392Y-68475666D01*
X161269395Y-68509565D01*
X161287772Y-68549498D01*
X161299380Y-68596626D01*
X161303499Y-68652437D01*
X161303499Y-69086945D01*
X161429223Y-69086945D01*
X161429223Y-68321000D01*
X161303499Y-68321000D01*
X161303499Y-68438236D01*
X161270227Y-68394664D01*
X161234866Y-68360679D01*
X161197253Y-68335105D01*
X161155751Y-68316738D01*
X161109285Y-68305398D01*
X161056875Y-68301460D01*
X160991798Y-68307147D01*
X160938116Y-68323099D01*
X160893611Y-68348429D01*
X160856718Y-68383342D01*
X160828637Y-68425595D01*
X160807325Y-68478097D01*
X160793474Y-68543023D01*
X160788452Y-68623006D01*
G37*
G36*
X161688487Y-69086945D02*
G01*
X161814211Y-69086945D01*
X161814211Y-68321000D01*
X161688487Y-68321000D01*
X161688487Y-69086945D01*
G37*
G36*
X161688487Y-69383944D02*
G01*
X161814211Y-69383944D01*
X161814211Y-69223721D01*
X161688487Y-69223721D01*
X161688487Y-69383944D01*
G37*
G36*
X162713330Y-68784572D02*
G01*
X162713330Y-68321000D01*
X162587606Y-68321000D01*
X162587606Y-68780420D01*
X162582057Y-68851917D01*
X162567298Y-68904683D01*
X162545229Y-68943086D01*
X162513418Y-68972360D01*
X162472097Y-68990510D01*
X162418223Y-68997064D01*
X162368183Y-68992668D01*
X162325620Y-68980175D01*
X162289124Y-68960074D01*
X162257695Y-68932095D01*
X162232866Y-68898192D01*
X162214599Y-68858221D01*
X162203053Y-68811013D01*
X162198954Y-68755080D01*
X162198954Y-68321000D01*
X162072558Y-68321000D01*
X162072558Y-69086945D01*
X162198954Y-69086945D01*
X162198954Y-68969709D01*
X162231758Y-69012788D01*
X162267095Y-69046688D01*
X162305139Y-69072474D01*
X162347130Y-69091071D01*
X162393852Y-69102519D01*
X162446250Y-69106484D01*
X162511351Y-69100796D01*
X162564894Y-69084860D01*
X162609137Y-69059588D01*
X162645674Y-69024785D01*
X162673443Y-68982730D01*
X162694570Y-68930243D01*
X162708332Y-68865090D01*
X162713330Y-68784572D01*
G37*
G36*
X163341375Y-68308692D02*
G01*
X163409672Y-68329247D01*
X163468144Y-68362358D01*
X163518415Y-68408561D01*
X163557740Y-68464288D01*
X163586883Y-68530637D01*
X163605414Y-68609671D01*
X163612021Y-68703972D01*
X163605400Y-68798655D01*
X163586846Y-68877834D01*
X163557702Y-68944145D01*
X163518415Y-68999689D01*
X163468163Y-69045746D01*
X163409699Y-69078766D01*
X163341395Y-69099269D01*
X163260922Y-69106484D01*
X163180049Y-69099252D01*
X163111567Y-69078723D01*
X163053104Y-69045701D01*
X163003002Y-68999689D01*
X162963882Y-68944168D01*
X162934849Y-68877867D01*
X162916361Y-68798679D01*
X162909762Y-68703972D01*
X163042325Y-68703972D01*
X163046544Y-68773815D01*
X163058324Y-68832187D01*
X163076671Y-68880914D01*
X163101065Y-68921532D01*
X163133410Y-68956566D01*
X163170152Y-68980988D01*
X163212171Y-68995820D01*
X163260922Y-69000972D01*
X163309240Y-68995801D01*
X163351006Y-68980888D01*
X163387656Y-68956270D01*
X163420046Y-68920860D01*
X163444508Y-68879897D01*
X163462852Y-68831108D01*
X163474593Y-68773043D01*
X163478787Y-68703972D01*
X163474581Y-68634517D01*
X163462821Y-68576293D01*
X163444475Y-68527523D01*
X163420046Y-68486718D01*
X163387679Y-68451490D01*
X163351038Y-68426981D01*
X163309263Y-68412125D01*
X163260922Y-68406973D01*
X163211809Y-68412139D01*
X163169628Y-68426989D01*
X163132893Y-68451395D01*
X163100699Y-68486352D01*
X163076466Y-68526976D01*
X163058231Y-68575717D01*
X163046520Y-68634108D01*
X163042325Y-68703972D01*
X162909762Y-68703972D01*
X162916346Y-68609647D01*
X162934813Y-68530605D01*
X162963844Y-68464265D01*
X163003002Y-68408561D01*
X163053124Y-68362403D01*
X163111594Y-68329290D01*
X163180069Y-68308709D01*
X163260922Y-68301460D01*
X163341375Y-68308692D01*
G37*
G36*
X164201257Y-68762591D02*
G01*
X164569453Y-68762591D01*
X164569453Y-68649262D01*
X164201257Y-68649262D01*
X164201257Y-68762591D01*
G37*
G36*
X164786280Y-69009215D02*
G01*
X164786280Y-69133840D01*
X165662012Y-68815530D01*
X165662012Y-68701835D01*
X164786280Y-68383526D01*
X164786280Y-68508151D01*
X165489882Y-68758011D01*
X164786280Y-69009215D01*
G37*
G36*
X166801618Y-68305222D02*
G01*
X166873091Y-68316481D01*
X166943216Y-68334831D01*
X167011821Y-68360078D01*
X167011821Y-68477315D01*
X166944021Y-68446305D01*
X166876876Y-68424558D01*
X166808064Y-68411402D01*
X166736498Y-68406973D01*
X166674303Y-68411782D01*
X166622193Y-68425308D01*
X166578373Y-68446716D01*
X166541470Y-68475911D01*
X166511655Y-68512278D01*
X166488424Y-68556750D01*
X166472005Y-68610871D01*
X166463251Y-68676617D01*
X167041191Y-68676617D01*
X167041191Y-68737678D01*
X167034936Y-68822658D01*
X167017302Y-68894503D01*
X166989373Y-68955452D01*
X166951370Y-69007261D01*
X166903311Y-69050045D01*
X166847683Y-69080740D01*
X166782991Y-69099790D01*
X166707128Y-69106484D01*
X166638434Y-69101679D01*
X166577859Y-69087897D01*
X166524143Y-69065716D01*
X166476267Y-69035201D01*
X166433515Y-68995904D01*
X166390486Y-68938061D01*
X166358965Y-68870338D01*
X166339118Y-68790840D01*
X166337829Y-68773643D01*
X166467342Y-68773643D01*
X166480493Y-68843034D01*
X166504947Y-68897972D01*
X166540065Y-68941376D01*
X166585448Y-68973749D01*
X166640673Y-68993832D01*
X166708471Y-69000972D01*
X166767705Y-68993773D01*
X166816675Y-68973232D01*
X166857764Y-68939300D01*
X166888414Y-68895178D01*
X166907900Y-68841072D01*
X166915467Y-68774314D01*
X166467342Y-68773643D01*
X166337829Y-68773643D01*
X166332093Y-68697133D01*
X166336817Y-68623912D01*
X166350320Y-68559605D01*
X166371925Y-68502905D01*
X166401408Y-68452726D01*
X166439010Y-68408255D01*
X166483505Y-68370735D01*
X166533792Y-68341291D01*
X166590697Y-68319697D01*
X166655320Y-68306189D01*
X166728987Y-68301460D01*
X166801618Y-68305222D01*
G37*
G36*
X167735207Y-69063498D02*
G01*
X167735207Y-68946261D01*
X167680777Y-68970235D01*
X167624504Y-68987294D01*
X167566432Y-68997517D01*
X167505680Y-69000972D01*
X167443490Y-68997131D01*
X167397957Y-68987025D01*
X167365301Y-68972273D01*
X167339269Y-68949942D01*
X167323914Y-68921933D01*
X167318528Y-68886361D01*
X167322369Y-68858931D01*
X167333397Y-68836485D01*
X167351990Y-68817789D01*
X167394683Y-68796271D01*
X167486568Y-68770345D01*
X167529615Y-68760820D01*
X167617713Y-68736379D01*
X167678996Y-68708912D01*
X167719819Y-68679548D01*
X167750418Y-68641217D01*
X167769392Y-68593370D01*
X167776179Y-68533185D01*
X167770716Y-68481663D01*
X167754977Y-68437187D01*
X167729038Y-68398228D01*
X167691793Y-68363864D01*
X167648655Y-68337975D01*
X167596784Y-68318481D01*
X167534519Y-68305952D01*
X167459884Y-68301460D01*
X167397950Y-68304557D01*
X167331840Y-68314161D01*
X167264720Y-68329689D01*
X167191461Y-68352263D01*
X167191461Y-68481223D01*
X167261633Y-68448325D01*
X167328726Y-68425535D01*
X167396493Y-68411550D01*
X167462632Y-68406973D01*
X167521383Y-68410953D01*
X167565924Y-68421616D01*
X167599286Y-68437564D01*
X167626125Y-68461089D01*
X167641717Y-68489310D01*
X167647096Y-68523843D01*
X167642988Y-68556544D01*
X167631458Y-68582331D01*
X167612597Y-68602856D01*
X167587192Y-68617912D01*
X167540054Y-68635574D01*
X167461288Y-68655795D01*
X167417569Y-68665993D01*
X167341193Y-68687360D01*
X167286555Y-68712862D01*
X167248797Y-68741464D01*
X167220631Y-68778372D01*
X167203142Y-68824073D01*
X167196896Y-68881109D01*
X167202024Y-68933684D01*
X167216598Y-68977956D01*
X167240182Y-69015611D01*
X167273405Y-69047744D01*
X167312595Y-69071953D01*
X167360624Y-69090306D01*
X167419270Y-69102193D01*
X167490659Y-69106484D01*
X167559194Y-69103723D01*
X167621817Y-69095738D01*
X167681651Y-69082093D01*
X167735207Y-69063498D01*
G37*
G36*
X168097907Y-68434328D02*
G01*
X168127394Y-68392306D01*
X168160671Y-68359253D01*
X168197986Y-68334128D01*
X168239475Y-68316439D01*
X168287231Y-68305357D01*
X168342456Y-68301460D01*
X168409538Y-68308540D01*
X168468553Y-68329095D01*
X168521294Y-68363195D01*
X168568869Y-68412346D01*
X168605655Y-68469558D01*
X168632804Y-68536052D01*
X168649943Y-68613506D01*
X168656002Y-68703972D01*
X168649943Y-68794439D01*
X168632804Y-68871892D01*
X168605655Y-68938387D01*
X168568869Y-68995598D01*
X168521294Y-69044749D01*
X168468553Y-69078849D01*
X168409538Y-69099404D01*
X168342456Y-69106484D01*
X168287235Y-69102581D01*
X168239478Y-69091478D01*
X168197986Y-69073756D01*
X168160673Y-69048666D01*
X168127397Y-69015635D01*
X168097907Y-68973616D01*
X168097907Y-69086945D01*
X167971512Y-69086945D01*
X167971512Y-68703972D01*
X168097907Y-68703972D01*
X168102031Y-68774348D01*
X168113516Y-68832924D01*
X168131341Y-68881578D01*
X168154938Y-68921898D01*
X168186457Y-68956783D01*
X168222412Y-68981081D01*
X168263682Y-68995840D01*
X168311742Y-69000972D01*
X168359769Y-68995841D01*
X168401020Y-68981084D01*
X168436966Y-68956786D01*
X168468485Y-68921898D01*
X168492082Y-68881578D01*
X168509907Y-68832924D01*
X168521392Y-68774348D01*
X168525516Y-68703972D01*
X168521393Y-68633599D01*
X168509909Y-68575011D01*
X168492084Y-68526335D01*
X168468485Y-68485986D01*
X168436970Y-68451128D01*
X168401025Y-68426848D01*
X168359773Y-68412100D01*
X168311742Y-68406973D01*
X168263678Y-68412101D01*
X168222407Y-68426851D01*
X168186453Y-68451131D01*
X168154938Y-68485986D01*
X168131339Y-68526335D01*
X168113514Y-68575011D01*
X168102030Y-68633599D01*
X168097907Y-68703972D01*
X167971512Y-68703972D01*
X167971512Y-68031816D01*
X168097907Y-68031816D01*
X168097907Y-68434328D01*
G37*
G36*
X169300193Y-68870912D02*
G01*
X169363075Y-68850979D01*
X169413980Y-68821593D01*
X169454921Y-68782802D01*
X169485453Y-68735566D01*
X169504104Y-68681127D01*
X169510608Y-68617571D01*
X169503610Y-68543843D01*
X169483750Y-68481773D01*
X169451702Y-68429034D01*
X169406744Y-68384075D01*
X169353384Y-68349941D01*
X169288101Y-68324145D01*
X169208487Y-68307473D01*
X169111637Y-68301460D01*
X169047067Y-68304578D01*
X168979441Y-68314161D01*
X168911297Y-68329784D01*
X168839062Y-68352263D01*
X168839062Y-68485131D01*
X168898716Y-68456432D01*
X168964725Y-68435427D01*
X169034099Y-68422937D01*
X169107546Y-68418697D01*
X169192889Y-68425294D01*
X169257257Y-68443006D01*
X169305322Y-68469743D01*
X169334717Y-68497750D01*
X169355668Y-68531030D01*
X169368681Y-68570635D01*
X169373282Y-68618182D01*
X169369065Y-68662002D01*
X169357045Y-68699229D01*
X169337552Y-68731185D01*
X169310085Y-68758744D01*
X169265243Y-68785726D01*
X169207750Y-68803130D01*
X169134169Y-68809485D01*
X169015345Y-68809485D01*
X169015345Y-68922814D01*
X169139664Y-68922814D01*
X169206526Y-68928046D01*
X169257240Y-68942134D01*
X169295369Y-68963480D01*
X169325024Y-68994090D01*
X169342982Y-69032337D01*
X169349347Y-69080656D01*
X169342791Y-69130275D01*
X169324275Y-69169648D01*
X169293659Y-69201251D01*
X169254295Y-69223347D01*
X169202308Y-69237879D01*
X169134169Y-69243260D01*
X169076633Y-69240517D01*
X169012597Y-69231842D01*
X168946451Y-69217758D01*
X168869837Y-69196366D01*
X168869837Y-69317510D01*
X168947485Y-69336656D01*
X169017054Y-69349750D01*
X169084846Y-69357902D01*
X169146503Y-69360497D01*
X169225560Y-69355418D01*
X169292064Y-69341177D01*
X169348037Y-69318854D01*
X169395142Y-69288934D01*
X169435314Y-69249851D01*
X169463498Y-69205405D01*
X169480690Y-69154520D01*
X169486672Y-69095494D01*
X169481028Y-69040670D01*
X169464792Y-68993392D01*
X169438129Y-68952062D01*
X169402454Y-68917925D01*
X169357117Y-68890818D01*
X169300193Y-68870912D01*
G37*
G36*
X169891016Y-68438236D02*
G01*
X170372602Y-68438236D01*
X170372602Y-68321000D01*
X169724992Y-68321000D01*
X169724992Y-68438236D01*
X169939132Y-68656223D01*
X170109553Y-68832566D01*
X170169085Y-68905650D01*
X170202121Y-68958412D01*
X170222103Y-69010456D01*
X170228438Y-69059712D01*
X170221887Y-69111307D01*
X170203003Y-69154783D01*
X170171407Y-69192092D01*
X170130713Y-69219937D01*
X170081922Y-69237164D01*
X170022846Y-69243260D01*
X169957432Y-69237897D01*
X169885826Y-69220973D01*
X169813488Y-69193887D01*
X169731831Y-69153379D01*
X169731831Y-69294063D01*
X169814362Y-69323543D01*
X169887536Y-69343705D01*
X169958716Y-69356528D01*
X170020099Y-69360497D01*
X170099322Y-69354968D01*
X170166610Y-69339370D01*
X170223922Y-69314695D01*
X170272829Y-69281240D01*
X170313997Y-69238386D01*
X170343082Y-69189689D01*
X170360899Y-69133975D01*
X170367107Y-69069482D01*
X170361175Y-69008056D01*
X170343537Y-68950230D01*
X170312990Y-68893011D01*
X170257808Y-68817362D01*
X170149181Y-68702934D01*
X169891016Y-68438236D01*
G37*
G36*
X159909117Y-66758236D02*
G01*
X160134553Y-66758236D01*
X160134553Y-67535905D01*
X159889272Y-67485103D01*
X159889272Y-67610155D01*
X160133149Y-67660958D01*
X160271146Y-67660958D01*
X160271146Y-66758236D01*
X160496582Y-66758236D01*
X160496582Y-66641000D01*
X159909117Y-66641000D01*
X159909117Y-66758236D01*
G37*
G36*
X161163448Y-66627879D02*
G01*
X161228790Y-66646176D01*
X161285379Y-66675646D01*
X161334640Y-66716593D01*
X161374491Y-66766805D01*
X161403314Y-66824601D01*
X161421267Y-66891438D01*
X161427575Y-66969262D01*
X161421409Y-67049219D01*
X161403994Y-67116913D01*
X161376308Y-67174485D01*
X161338426Y-67223580D01*
X161291046Y-67263657D01*
X161235889Y-67292620D01*
X161171432Y-67310693D01*
X161095588Y-67317064D01*
X161047655Y-67313441D01*
X161003235Y-67302809D01*
X160961681Y-67285251D01*
X160923645Y-67261117D01*
X160890073Y-67230868D01*
X160860626Y-67193965D01*
X160870921Y-67288874D01*
X160888935Y-67364656D01*
X160913233Y-67424578D01*
X160942936Y-67471425D01*
X160982207Y-67510981D01*
X161028955Y-67539328D01*
X161084686Y-67557000D01*
X161151641Y-67563260D01*
X161203519Y-67560286D01*
X161256483Y-67551232D01*
X161308888Y-67536592D01*
X161361324Y-67516366D01*
X161361324Y-67641418D01*
X161304196Y-67658739D01*
X161250987Y-67670727D01*
X161198077Y-67678076D01*
X161146146Y-67680497D01*
X161070070Y-67674430D01*
X161002517Y-67656919D01*
X160942009Y-67628435D01*
X160887416Y-67588673D01*
X160838034Y-67536577D01*
X160798463Y-67478145D01*
X160766846Y-67411600D01*
X160743341Y-67335792D01*
X160728512Y-67249329D01*
X160723300Y-67150612D01*
X160727843Y-67042947D01*
X160738105Y-66969262D01*
X160885844Y-66969262D01*
X160892539Y-67041360D01*
X160911043Y-67098507D01*
X160940127Y-67143896D01*
X160969442Y-67171584D01*
X161003114Y-67191268D01*
X161042010Y-67203398D01*
X161087405Y-67207643D01*
X161132768Y-67203398D01*
X161171633Y-67191268D01*
X161205276Y-67171585D01*
X161234562Y-67143896D01*
X161263681Y-67098502D01*
X161282204Y-67041355D01*
X161288906Y-66969262D01*
X161282227Y-66897622D01*
X161263721Y-66840542D01*
X161234562Y-66794934D01*
X161205256Y-66767097D01*
X161171607Y-66747322D01*
X161132749Y-66735142D01*
X161087405Y-66730881D01*
X161042030Y-66735143D01*
X161003141Y-66747323D01*
X160969461Y-66767098D01*
X160940127Y-66794934D01*
X160911002Y-66840537D01*
X160892517Y-66897618D01*
X160885844Y-66969262D01*
X160738105Y-66969262D01*
X160740527Y-66951873D01*
X160760141Y-66875169D01*
X160785773Y-66810836D01*
X160816845Y-66757137D01*
X160857808Y-66708110D01*
X160904397Y-66670734D01*
X160957308Y-66643882D01*
X161017760Y-66627266D01*
X161087405Y-66621460D01*
X161163448Y-66627879D01*
G37*
G36*
X161870875Y-67660958D02*
G01*
X161986952Y-67660958D01*
X161631762Y-66512039D01*
X161515624Y-66512039D01*
X161870875Y-67660958D01*
G37*
G36*
X162498472Y-66627224D02*
G01*
X162556901Y-66643743D01*
X162608134Y-66670504D01*
X162653348Y-66707890D01*
X162693180Y-66757137D01*
X162729888Y-66825663D01*
X162758273Y-66911583D01*
X162776932Y-67018507D01*
X162783733Y-67150612D01*
X162776924Y-67283133D01*
X162758251Y-67390281D01*
X162729865Y-67476273D01*
X162693180Y-67544759D01*
X162653345Y-67594031D01*
X162608129Y-67631434D01*
X162556896Y-67658207D01*
X162498469Y-67674731D01*
X162431230Y-67680497D01*
X162363991Y-67674731D01*
X162305557Y-67658208D01*
X162254311Y-67631436D01*
X162209077Y-67594032D01*
X162169218Y-67544759D01*
X162132560Y-67476277D01*
X162104192Y-67390286D01*
X162085531Y-67283138D01*
X162078726Y-67150612D01*
X162217395Y-67150612D01*
X162221594Y-67260216D01*
X162232952Y-67346835D01*
X162249843Y-67414322D01*
X162271006Y-67466113D01*
X162302520Y-67513632D01*
X162339033Y-67545572D01*
X162381302Y-67564528D01*
X162431230Y-67571076D01*
X162481511Y-67564510D01*
X162523984Y-67545524D01*
X162560577Y-67513580D01*
X162592064Y-67466113D01*
X162613252Y-67414319D01*
X162630162Y-67346830D01*
X162641532Y-67260213D01*
X162645736Y-67150612D01*
X162641538Y-67041431D01*
X162630177Y-66955034D01*
X162613268Y-66887616D01*
X162592064Y-66835783D01*
X162560581Y-66788348D01*
X162523990Y-66756421D01*
X162481515Y-66737444D01*
X162431230Y-66730881D01*
X162381298Y-66737426D01*
X162339027Y-66756374D01*
X162302516Y-66788296D01*
X162271006Y-66835783D01*
X162249827Y-66887613D01*
X162232937Y-66955029D01*
X162221589Y-67041428D01*
X162217395Y-67150612D01*
X162078726Y-67150612D01*
X162085523Y-67018503D01*
X162104171Y-66911577D01*
X162132537Y-66825659D01*
X162169218Y-66757137D01*
X162209074Y-66707889D01*
X162254306Y-66670502D01*
X162305552Y-66643741D01*
X162363988Y-66627224D01*
X162431230Y-66621460D01*
X162498472Y-66627224D01*
G37*
G36*
X163145029Y-66758236D02*
G01*
X163626615Y-66758236D01*
X163626615Y-66641000D01*
X162979005Y-66641000D01*
X162979005Y-66758236D01*
X163193145Y-66976223D01*
X163363566Y-67152566D01*
X163423098Y-67225650D01*
X163456134Y-67278412D01*
X163476117Y-67330456D01*
X163482451Y-67379712D01*
X163475900Y-67431307D01*
X163457016Y-67474783D01*
X163425420Y-67512092D01*
X163384726Y-67539937D01*
X163335935Y-67557164D01*
X163276859Y-67563260D01*
X163211445Y-67557897D01*
X163139839Y-67540973D01*
X163067501Y-67513887D01*
X162985844Y-67473379D01*
X162985844Y-67614063D01*
X163068375Y-67643543D01*
X163141549Y-67663705D01*
X163212729Y-67676528D01*
X163274112Y-67680497D01*
X163353335Y-67674968D01*
X163420623Y-67659370D01*
X163477935Y-67634695D01*
X163526842Y-67601240D01*
X163568010Y-67558386D01*
X163597095Y-67509689D01*
X163614912Y-67453975D01*
X163621120Y-67389482D01*
X163615188Y-67328056D01*
X163597550Y-67270230D01*
X163567003Y-67213011D01*
X163511821Y-67137362D01*
X163403194Y-67022934D01*
X163145029Y-66758236D01*
G37*
G36*
X164121818Y-67660958D02*
G01*
X164237894Y-67660958D01*
X163882704Y-66512039D01*
X163766566Y-66512039D01*
X164121818Y-67660958D01*
G37*
G36*
X164505951Y-66758236D02*
G01*
X164987536Y-66758236D01*
X164987536Y-66641000D01*
X164339926Y-66641000D01*
X164339926Y-66758236D01*
X164554066Y-66976223D01*
X164724487Y-67152566D01*
X164784019Y-67225650D01*
X164817055Y-67278412D01*
X164837038Y-67330456D01*
X164843372Y-67379712D01*
X164836822Y-67431307D01*
X164817937Y-67474783D01*
X164786341Y-67512092D01*
X164745647Y-67539937D01*
X164696856Y-67557164D01*
X164637781Y-67563260D01*
X164572366Y-67557897D01*
X164500760Y-67540973D01*
X164428422Y-67513887D01*
X164346765Y-67473379D01*
X164346765Y-67614063D01*
X164429296Y-67643543D01*
X164502470Y-67663705D01*
X164573650Y-67676528D01*
X164635033Y-67680497D01*
X164714257Y-67674968D01*
X164781544Y-67659370D01*
X164838856Y-67634695D01*
X164887763Y-67601240D01*
X164928931Y-67558386D01*
X164958016Y-67509689D01*
X164975833Y-67453975D01*
X164982041Y-67389482D01*
X164976110Y-67328056D01*
X164958471Y-67270230D01*
X164927924Y-67213011D01*
X164872742Y-67137362D01*
X164764115Y-67022934D01*
X164505951Y-66758236D01*
G37*
G36*
X165639435Y-66627224D02*
G01*
X165697864Y-66643743D01*
X165749097Y-66670504D01*
X165794311Y-66707890D01*
X165834143Y-66757137D01*
X165870851Y-66825663D01*
X165899236Y-66911583D01*
X165917895Y-67018507D01*
X165924696Y-67150612D01*
X165917887Y-67283133D01*
X165899214Y-67390281D01*
X165870828Y-67476273D01*
X165834143Y-67544759D01*
X165794308Y-67594031D01*
X165749092Y-67631434D01*
X165697859Y-67658207D01*
X165639432Y-67674731D01*
X165572193Y-67680497D01*
X165504954Y-67674731D01*
X165446520Y-67658208D01*
X165395274Y-67631436D01*
X165350040Y-67594032D01*
X165310181Y-67544759D01*
X165273523Y-67476277D01*
X165245155Y-67390286D01*
X165226494Y-67283138D01*
X165219689Y-67150612D01*
X165358358Y-67150612D01*
X165362557Y-67260216D01*
X165373915Y-67346835D01*
X165390806Y-67414322D01*
X165411969Y-67466113D01*
X165443483Y-67513632D01*
X165479996Y-67545572D01*
X165522265Y-67564528D01*
X165572193Y-67571076D01*
X165622474Y-67564510D01*
X165664947Y-67545524D01*
X165701540Y-67513580D01*
X165733027Y-67466113D01*
X165754215Y-67414319D01*
X165771125Y-67346830D01*
X165782495Y-67260213D01*
X165786699Y-67150612D01*
X165782501Y-67041431D01*
X165771140Y-66955034D01*
X165754231Y-66887616D01*
X165733027Y-66835783D01*
X165701544Y-66788348D01*
X165664953Y-66756421D01*
X165622478Y-66737444D01*
X165572193Y-66730881D01*
X165522261Y-66737426D01*
X165479990Y-66756374D01*
X165443479Y-66788296D01*
X165411969Y-66835783D01*
X165390790Y-66887613D01*
X165373900Y-66955029D01*
X165362552Y-67041428D01*
X165358358Y-67150612D01*
X165219689Y-67150612D01*
X165226486Y-67018503D01*
X165245134Y-66911577D01*
X165273500Y-66825659D01*
X165310181Y-66757137D01*
X165350037Y-66707889D01*
X165395269Y-66670502D01*
X165446515Y-66643741D01*
X165504951Y-66627224D01*
X165572193Y-66621460D01*
X165639435Y-66627224D01*
G37*
G36*
X166285992Y-66758236D02*
G01*
X166767578Y-66758236D01*
X166767578Y-66641000D01*
X166119968Y-66641000D01*
X166119968Y-66758236D01*
X166334108Y-66976223D01*
X166504529Y-67152566D01*
X166564061Y-67225650D01*
X166597097Y-67278412D01*
X166617080Y-67330456D01*
X166623414Y-67379712D01*
X166616863Y-67431307D01*
X166597979Y-67474783D01*
X166566383Y-67512092D01*
X166525689Y-67539937D01*
X166476898Y-67557164D01*
X166417822Y-67563260D01*
X166352408Y-67557897D01*
X166280802Y-67540973D01*
X166208464Y-67513887D01*
X166126807Y-67473379D01*
X166126807Y-67614063D01*
X166209338Y-67643543D01*
X166282512Y-67663705D01*
X166353692Y-67676528D01*
X166415075Y-67680497D01*
X166494298Y-67674968D01*
X166561586Y-67659370D01*
X166618898Y-67634695D01*
X166667805Y-67601240D01*
X166708973Y-67558386D01*
X166738058Y-67509689D01*
X166755875Y-67453975D01*
X166762083Y-67389482D01*
X166756151Y-67328056D01*
X166738513Y-67270230D01*
X166707966Y-67213011D01*
X166652784Y-67137362D01*
X166544157Y-67022934D01*
X166285992Y-66758236D01*
G37*
G36*
X167445374Y-66627879D02*
G01*
X167510716Y-66646176D01*
X167567305Y-66675646D01*
X167616566Y-66716593D01*
X167656417Y-66766805D01*
X167685240Y-66824601D01*
X167703193Y-66891438D01*
X167709501Y-66969262D01*
X167703336Y-67049219D01*
X167685920Y-67116913D01*
X167658234Y-67174485D01*
X167620352Y-67223580D01*
X167572972Y-67263657D01*
X167517815Y-67292620D01*
X167453358Y-67310693D01*
X167377514Y-67317064D01*
X167329581Y-67313441D01*
X167285161Y-67302809D01*
X167243608Y-67285251D01*
X167205571Y-67261117D01*
X167171999Y-67230868D01*
X167142552Y-67193965D01*
X167152847Y-67288874D01*
X167170861Y-67364656D01*
X167195159Y-67424578D01*
X167224862Y-67471425D01*
X167264133Y-67510981D01*
X167310881Y-67539328D01*
X167366612Y-67557000D01*
X167433567Y-67563260D01*
X167485445Y-67560286D01*
X167538409Y-67551232D01*
X167590814Y-67536592D01*
X167643250Y-67516366D01*
X167643250Y-67641418D01*
X167586122Y-67658739D01*
X167532913Y-67670727D01*
X167480003Y-67678076D01*
X167428072Y-67680497D01*
X167351996Y-67674430D01*
X167284443Y-67656919D01*
X167223935Y-67628435D01*
X167169342Y-67588673D01*
X167119960Y-67536577D01*
X167080389Y-67478145D01*
X167048772Y-67411600D01*
X167025267Y-67335792D01*
X167010438Y-67249329D01*
X167005226Y-67150612D01*
X167009769Y-67042947D01*
X167020031Y-66969262D01*
X167167770Y-66969262D01*
X167174465Y-67041360D01*
X167192969Y-67098507D01*
X167222053Y-67143896D01*
X167251368Y-67171584D01*
X167285040Y-67191268D01*
X167323936Y-67203398D01*
X167369332Y-67207643D01*
X167414694Y-67203398D01*
X167453559Y-67191268D01*
X167487202Y-67171585D01*
X167516488Y-67143896D01*
X167545607Y-67098502D01*
X167564130Y-67041355D01*
X167570832Y-66969262D01*
X167564153Y-66897622D01*
X167545648Y-66840542D01*
X167516488Y-66794934D01*
X167487182Y-66767097D01*
X167453533Y-66747322D01*
X167414675Y-66735142D01*
X167369332Y-66730881D01*
X167323956Y-66735143D01*
X167285067Y-66747323D01*
X167251387Y-66767098D01*
X167222053Y-66794934D01*
X167192928Y-66840537D01*
X167174443Y-66897618D01*
X167167770Y-66969262D01*
X167020031Y-66969262D01*
X167022453Y-66951873D01*
X167042067Y-66875169D01*
X167067699Y-66810836D01*
X167098772Y-66757137D01*
X167139734Y-66708110D01*
X167186323Y-66670734D01*
X167239234Y-66643882D01*
X167299686Y-66627266D01*
X167369332Y-66621460D01*
X167445374Y-66627879D01*
G37*
G36*
X163722357Y-64961000D02*
G01*
X163332973Y-65980958D01*
X163477138Y-65980958D01*
X163800210Y-65122200D01*
X164124015Y-65980958D01*
X164267508Y-65980958D01*
X163878795Y-64961000D01*
X163722357Y-64961000D01*
G37*
G36*
X164717737Y-64945222D02*
G01*
X164789210Y-64956481D01*
X164859336Y-64974831D01*
X164927940Y-65000078D01*
X164927940Y-65117315D01*
X164860140Y-65086305D01*
X164792996Y-65064558D01*
X164724183Y-65051402D01*
X164652617Y-65046973D01*
X164590423Y-65051782D01*
X164538313Y-65065308D01*
X164494492Y-65086716D01*
X164457590Y-65115911D01*
X164427774Y-65152278D01*
X164404544Y-65196750D01*
X164388125Y-65250871D01*
X164379371Y-65316617D01*
X164957310Y-65316617D01*
X164957310Y-65377678D01*
X164951056Y-65462658D01*
X164933422Y-65534503D01*
X164905493Y-65595452D01*
X164867490Y-65647261D01*
X164819431Y-65690045D01*
X164763802Y-65720740D01*
X164699110Y-65739790D01*
X164623247Y-65746484D01*
X164554554Y-65741679D01*
X164493979Y-65727897D01*
X164440262Y-65705716D01*
X164392387Y-65675201D01*
X164349634Y-65635904D01*
X164306606Y-65578061D01*
X164275085Y-65510338D01*
X164255238Y-65430840D01*
X164253949Y-65413643D01*
X164383462Y-65413643D01*
X164396613Y-65483034D01*
X164421066Y-65537972D01*
X164456185Y-65581376D01*
X164501568Y-65613749D01*
X164556792Y-65633832D01*
X164624591Y-65640972D01*
X164683825Y-65633773D01*
X164732795Y-65613232D01*
X164773884Y-65579300D01*
X164804534Y-65535178D01*
X164824020Y-65481072D01*
X164831586Y-65414314D01*
X164383462Y-65413643D01*
X164253949Y-65413643D01*
X164248212Y-65337133D01*
X164252936Y-65263912D01*
X164266440Y-65199605D01*
X164288045Y-65142905D01*
X164317527Y-65092726D01*
X164355130Y-65048255D01*
X164399625Y-65010735D01*
X164449912Y-64981291D01*
X164506816Y-64959697D01*
X164571439Y-64946189D01*
X164645107Y-64941460D01*
X164717737Y-64945222D01*
G37*
G36*
X165606935Y-65609709D02*
G01*
X165560834Y-65627416D01*
X165505819Y-65633156D01*
X165453452Y-65628424D01*
X165409777Y-65615073D01*
X165373097Y-65593712D01*
X165342237Y-65564035D01*
X165318675Y-65528422D01*
X165300876Y-65484655D01*
X165289364Y-65431057D01*
X165285206Y-65365588D01*
X165285206Y-64961000D01*
X165158811Y-64961000D01*
X165158811Y-65726945D01*
X165285206Y-65726945D01*
X165285206Y-65609709D01*
X165314933Y-65652805D01*
X165349202Y-65686821D01*
X165388338Y-65712779D01*
X165431948Y-65730943D01*
X165482929Y-65742421D01*
X165542699Y-65746484D01*
X165571398Y-65744531D01*
X165606264Y-65738669D01*
X165606935Y-65609709D01*
G37*
G36*
X166226763Y-65703498D02*
G01*
X166226763Y-65586261D01*
X166172332Y-65610235D01*
X166116060Y-65627294D01*
X166057987Y-65637517D01*
X165997235Y-65640972D01*
X165935046Y-65637131D01*
X165889513Y-65627025D01*
X165856857Y-65612273D01*
X165830825Y-65589942D01*
X165815470Y-65561933D01*
X165810084Y-65526361D01*
X165813925Y-65498931D01*
X165824953Y-65476485D01*
X165843546Y-65457789D01*
X165886239Y-65436271D01*
X165978123Y-65410345D01*
X166021171Y-65400820D01*
X166109269Y-65376379D01*
X166170551Y-65348912D01*
X166211375Y-65319548D01*
X166241974Y-65281217D01*
X166260948Y-65233370D01*
X166267734Y-65173185D01*
X166262272Y-65121663D01*
X166246533Y-65077187D01*
X166220593Y-65038228D01*
X166183348Y-65003864D01*
X166140211Y-64977975D01*
X166088340Y-64958481D01*
X166026075Y-64945952D01*
X165951440Y-64941460D01*
X165889506Y-64944557D01*
X165823396Y-64954161D01*
X165756275Y-64969689D01*
X165683017Y-64992263D01*
X165683017Y-65121223D01*
X165753189Y-65088325D01*
X165820281Y-65065535D01*
X165888049Y-65051550D01*
X165954188Y-65046973D01*
X166012939Y-65050953D01*
X166057480Y-65061616D01*
X166090841Y-65077564D01*
X166117681Y-65101089D01*
X166133273Y-65129310D01*
X166138652Y-65163843D01*
X166134544Y-65196544D01*
X166123014Y-65222331D01*
X166104153Y-65242856D01*
X166078748Y-65257912D01*
X166031610Y-65275574D01*
X165952844Y-65295795D01*
X165909125Y-65305993D01*
X165832749Y-65327360D01*
X165778111Y-65352862D01*
X165740353Y-65381464D01*
X165712187Y-65418372D01*
X165694698Y-65464073D01*
X165688451Y-65521109D01*
X165693580Y-65573684D01*
X165708154Y-65617956D01*
X165731738Y-65655611D01*
X165764960Y-65687744D01*
X165804151Y-65711953D01*
X165852180Y-65730306D01*
X165910826Y-65742193D01*
X165982214Y-65746484D01*
X166050750Y-65743723D01*
X166113373Y-65735738D01*
X166173206Y-65722093D01*
X166226763Y-65703498D01*
G37*
G36*
X166606466Y-65907643D02*
G01*
X166615353Y-65936566D01*
X166631271Y-65955321D01*
X166653638Y-65961418D01*
X166673788Y-65954824D01*
X166700105Y-65934429D01*
X166739001Y-65897182D01*
X166764507Y-65877330D01*
X166786140Y-65865370D01*
X166808772Y-65858321D01*
X166833950Y-65855905D01*
X166872803Y-65861589D01*
X166904550Y-65877964D01*
X166930976Y-65905792D01*
X166949403Y-65940851D01*
X166961917Y-65987060D01*
X166967185Y-66047392D01*
X166881761Y-66047392D01*
X166877014Y-65995658D01*
X166868083Y-65966730D01*
X166852214Y-65947978D01*
X166829859Y-65941879D01*
X166809648Y-65948412D01*
X166783392Y-65968868D01*
X166744496Y-66006115D01*
X166718990Y-66025967D01*
X166697357Y-66037927D01*
X166674725Y-66044976D01*
X166649547Y-66047392D01*
X166610699Y-66041703D01*
X166578952Y-66025309D01*
X166552521Y-65997444D01*
X166534096Y-65962423D01*
X166521581Y-65916237D01*
X166516312Y-65855905D01*
X166601736Y-65855905D01*
X166606466Y-65907643D01*
G37*
G36*
X166737416Y-64945504D02*
G01*
X166789282Y-64956882D01*
X166833279Y-64974799D01*
X166873040Y-65000547D01*
X166908707Y-65034667D01*
X166940562Y-65078236D01*
X166940562Y-64961000D01*
X167066225Y-64961000D01*
X167066225Y-65399415D01*
X167060183Y-65487812D01*
X167043572Y-65558717D01*
X167018024Y-65615378D01*
X166984221Y-65660389D01*
X166940825Y-65696254D01*
X166886716Y-65723009D01*
X166819543Y-65740246D01*
X166736253Y-65746484D01*
X166674528Y-65743367D01*
X166609919Y-65733784D01*
X166544887Y-65718163D01*
X166476012Y-65695682D01*
X166476012Y-65578445D01*
X166534740Y-65605855D01*
X166595569Y-65625340D01*
X166658409Y-65637042D01*
X166723308Y-65640972D01*
X166790558Y-65634985D01*
X166842885Y-65618600D01*
X166883532Y-65593161D01*
X166914685Y-65557742D01*
X166933770Y-65513596D01*
X166940562Y-65458034D01*
X166940562Y-65445577D01*
X166764341Y-65445577D01*
X166676660Y-65440628D01*
X166606405Y-65427087D01*
X166550521Y-65406506D01*
X166506421Y-65379815D01*
X166469311Y-65343820D01*
X166442648Y-65300417D01*
X166425957Y-65248097D01*
X166420831Y-65193274D01*
X166545744Y-65193274D01*
X166549874Y-65234615D01*
X166561297Y-65267148D01*
X166579351Y-65292820D01*
X166604484Y-65312831D01*
X166645920Y-65330065D01*
X166712969Y-65342781D01*
X166815571Y-65347880D01*
X166940562Y-65347880D01*
X166940562Y-65319731D01*
X166936181Y-65258020D01*
X166923788Y-65205357D01*
X166904122Y-65160255D01*
X166877364Y-65121528D01*
X166843225Y-65088940D01*
X166804582Y-65065940D01*
X166760525Y-65051869D01*
X166709692Y-65046973D01*
X166660587Y-65051793D01*
X166621318Y-65065199D01*
X166589769Y-65086479D01*
X166565620Y-65115392D01*
X166550924Y-65150379D01*
X166545744Y-65193274D01*
X166420831Y-65193274D01*
X166420020Y-65184604D01*
X166424695Y-65129996D01*
X166438015Y-65083170D01*
X166459476Y-65042694D01*
X166489324Y-65007528D01*
X166525785Y-64979376D01*
X166568250Y-64958864D01*
X166617875Y-64946001D01*
X166676169Y-64941460D01*
X166737416Y-64945504D01*
G37*
G36*
X167702575Y-64948692D02*
G01*
X167770872Y-64969247D01*
X167829344Y-65002358D01*
X167879615Y-65048561D01*
X167918940Y-65104288D01*
X167948083Y-65170637D01*
X167966614Y-65249671D01*
X167973221Y-65343972D01*
X167966600Y-65438655D01*
X167948046Y-65517834D01*
X167918902Y-65584145D01*
X167879615Y-65639689D01*
X167829363Y-65685746D01*
X167770899Y-65718766D01*
X167702595Y-65739269D01*
X167622122Y-65746484D01*
X167541249Y-65739252D01*
X167472767Y-65718723D01*
X167414304Y-65685701D01*
X167364202Y-65639689D01*
X167325082Y-65584168D01*
X167296049Y-65517867D01*
X167277561Y-65438679D01*
X167270962Y-65343972D01*
X167403525Y-65343972D01*
X167407744Y-65413815D01*
X167419524Y-65472187D01*
X167437871Y-65520914D01*
X167462265Y-65561532D01*
X167494610Y-65596566D01*
X167531352Y-65620988D01*
X167573371Y-65635820D01*
X167622122Y-65640972D01*
X167670440Y-65635801D01*
X167712206Y-65620888D01*
X167748856Y-65596270D01*
X167781246Y-65560860D01*
X167805708Y-65519897D01*
X167824052Y-65471108D01*
X167835793Y-65413043D01*
X167839987Y-65343972D01*
X167835781Y-65274517D01*
X167824021Y-65216293D01*
X167805675Y-65167523D01*
X167781246Y-65126718D01*
X167748879Y-65091490D01*
X167712238Y-65066981D01*
X167670463Y-65052125D01*
X167622122Y-65046973D01*
X167573009Y-65052139D01*
X167530828Y-65066989D01*
X167494092Y-65091395D01*
X167461899Y-65126352D01*
X167437666Y-65166976D01*
X167419431Y-65215717D01*
X167407720Y-65274108D01*
X167403525Y-65343972D01*
X167270962Y-65343972D01*
X167277546Y-65249647D01*
X167296013Y-65170605D01*
X167325044Y-65104265D01*
X167364202Y-65048561D01*
X167414324Y-65002403D01*
X167472794Y-64969290D01*
X167541269Y-64948709D01*
X167622122Y-64941460D01*
X167702575Y-64948692D01*
G37*
G36*
X168667665Y-65078236D02*
G01*
X168893101Y-65078236D01*
X168893101Y-65855905D01*
X168647820Y-65805103D01*
X168647820Y-65930155D01*
X168891696Y-65980958D01*
X169029693Y-65980958D01*
X169029693Y-65078236D01*
X169255130Y-65078236D01*
X169255130Y-64961000D01*
X168667665Y-64961000D01*
X168667665Y-65078236D01*
G37*
D11*
%TO.P,J1,1,Pin_1*%
%TO.N,+5V*%
X156871000Y-79248000D03*
D12*
%TO.P,J1,2,Pin_2*%
%TO.N,Net-(J1-Pin_2)*%
X161671000Y-79248000D03*
%TO.P,J1,3,Pin_3*%
%TO.N,GND*%
X166471000Y-79248000D03*
%TD*%
D13*
%TO.P,1k3,1*%
%TO.N,Net-(J1-Pin_2)*%
X162433000Y-74676000D03*
D14*
%TO.P,1k3,2*%
%TO.N,GND*%
X162433000Y-59436000D03*
%TD*%
D13*
%TO.P,1k1,1*%
%TO.N,+5V*%
X157226000Y-74676000D03*
%TO.P,1k1,2*%
%TO.N,Net-(1k1-Pad2)*%
X157226000Y-59436000D03*
%TD*%
%TO.P,1k2,1*%
%TO.N,Net-(J1-Pin_2)*%
X168148000Y-74803000D03*
%TO.P,1k2,2*%
%TO.N,Net-(1k1-Pad2)*%
X168148000Y-59563000D03*
%TD*%
D15*
%TO.N,Net-(J1-Pin_2)*%
X161671000Y-79248000D02*
X161671000Y-75438000D01*
X161671000Y-75438000D02*
X162433000Y-74676000D01*
%TO.N,GND*%
X162433000Y-61976000D02*
X162433000Y-59436000D01*
X161163000Y-63246000D02*
X162433000Y-61976000D01*
X155702000Y-63246000D02*
X161163000Y-63246000D01*
X153543000Y-61087000D02*
X155702000Y-63246000D01*
X153543000Y-58420000D02*
X153543000Y-61087000D01*
%TO.N,+5V*%
X156871000Y-75031000D02*
X157226000Y-74676000D01*
X156871000Y-79248000D02*
X156871000Y-75031000D01*
%TO.N,Net-(J1-Pin_2)*%
X168021000Y-74676000D02*
X168148000Y-74803000D01*
X162433000Y-74676000D02*
X168021000Y-74676000D01*
%TO.N,Net-(1k1-Pad2)*%
X166243000Y-57658000D02*
X168148000Y-59563000D01*
X166243000Y-56642000D02*
X166243000Y-57658000D01*
X159385000Y-56388000D02*
X165989000Y-56388000D01*
X165989000Y-56388000D02*
X166243000Y-56642000D01*
X157226000Y-58547000D02*
X159385000Y-56388000D01*
X157226000Y-59436000D02*
X157226000Y-58547000D01*
%TD*%
%TA.AperFunction,Conductor*%
%TO.N,GND*%
G36*
X171645013Y-54630511D02*
G01*
X171691502Y-54682670D01*
X171703438Y-54736305D01*
X171660329Y-64435966D01*
X171577557Y-83059830D01*
X171577549Y-83061551D01*
X171557566Y-83128502D01*
X171504560Y-83174022D01*
X171453550Y-83185000D01*
X150894544Y-83185000D01*
X150827505Y-83165315D01*
X150781750Y-83112511D01*
X150770550Y-83059830D01*
X150816888Y-78147983D01*
X155070500Y-78147983D01*
X155070500Y-80348001D01*
X155070501Y-80348018D01*
X155081000Y-80450796D01*
X155081001Y-80450799D01*
X155131962Y-80604587D01*
X155136186Y-80617334D01*
X155228288Y-80766656D01*
X155352344Y-80890712D01*
X155501666Y-80982814D01*
X155668203Y-81037999D01*
X155770991Y-81048500D01*
X157971008Y-81048499D01*
X158073797Y-81037999D01*
X158240334Y-80982814D01*
X158389656Y-80890712D01*
X158513712Y-80766656D01*
X158605814Y-80617334D01*
X158660999Y-80450797D01*
X158671500Y-80348009D01*
X158671499Y-79129995D01*
X159870500Y-79129995D01*
X159870500Y-79366004D01*
X159870501Y-79366020D01*
X159901306Y-79600010D01*
X159962394Y-79827993D01*
X160052714Y-80046045D01*
X160052719Y-80046056D01*
X160123677Y-80168957D01*
X160170727Y-80250450D01*
X160170729Y-80250453D01*
X160170730Y-80250454D01*
X160314406Y-80437697D01*
X160314412Y-80437704D01*
X160481295Y-80604587D01*
X160481302Y-80604593D01*
X160591306Y-80689001D01*
X160668550Y-80748273D01*
X160799918Y-80824118D01*
X160872943Y-80866280D01*
X160872948Y-80866282D01*
X160872951Y-80866284D01*
X161091007Y-80956606D01*
X161318986Y-81017693D01*
X161552989Y-81048500D01*
X161552996Y-81048500D01*
X161789004Y-81048500D01*
X161789011Y-81048500D01*
X162023014Y-81017693D01*
X162250993Y-80956606D01*
X162469049Y-80866284D01*
X162673450Y-80748273D01*
X162860699Y-80604592D01*
X162860704Y-80604587D01*
X162915648Y-80549644D01*
X163027587Y-80437704D01*
X163027592Y-80437699D01*
X163171273Y-80250450D01*
X163289284Y-80046049D01*
X163379606Y-79827993D01*
X163440693Y-79600014D01*
X163471500Y-79366011D01*
X163471500Y-79130014D01*
X164671000Y-79130014D01*
X164671000Y-79365985D01*
X164701799Y-79599914D01*
X164762870Y-79827837D01*
X164853160Y-80045819D01*
X164853165Y-80045828D01*
X164971144Y-80250171D01*
X164971145Y-80250172D01*
X165033721Y-80331723D01*
X165755152Y-79610292D01*
X165762049Y-79626942D01*
X165849599Y-79757970D01*
X165961030Y-79869401D01*
X166092058Y-79956951D01*
X166108706Y-79963846D01*
X165387275Y-80685277D01*
X165468827Y-80747854D01*
X165468828Y-80747855D01*
X165673171Y-80865834D01*
X165673180Y-80865839D01*
X165891163Y-80956129D01*
X165891161Y-80956129D01*
X166119085Y-81017200D01*
X166353014Y-81047999D01*
X166353029Y-81048000D01*
X166588971Y-81048000D01*
X166588985Y-81047999D01*
X166822914Y-81017200D01*
X167050837Y-80956129D01*
X167268819Y-80865839D01*
X167268828Y-80865834D01*
X167473181Y-80747850D01*
X167554723Y-80685279D01*
X167554723Y-80685276D01*
X166833293Y-79963847D01*
X166849942Y-79956951D01*
X166980970Y-79869401D01*
X167092401Y-79757970D01*
X167179951Y-79626942D01*
X167186847Y-79610293D01*
X167908276Y-80331723D01*
X167908279Y-80331723D01*
X167970850Y-80250181D01*
X168088834Y-80045828D01*
X168088839Y-80045819D01*
X168179129Y-79827837D01*
X168240200Y-79599914D01*
X168270999Y-79365985D01*
X168271000Y-79365971D01*
X168271000Y-79130028D01*
X168270999Y-79130014D01*
X168240200Y-78896085D01*
X168179129Y-78668162D01*
X168088839Y-78450180D01*
X168088834Y-78450171D01*
X167970855Y-78245828D01*
X167970854Y-78245827D01*
X167908277Y-78164275D01*
X167186846Y-78885705D01*
X167179951Y-78869058D01*
X167092401Y-78738030D01*
X166980970Y-78626599D01*
X166849942Y-78539049D01*
X166833293Y-78532152D01*
X167554723Y-77810721D01*
X167473172Y-77748145D01*
X167473171Y-77748144D01*
X167268828Y-77630165D01*
X167268819Y-77630160D01*
X167050836Y-77539870D01*
X167050838Y-77539870D01*
X166822914Y-77478799D01*
X166588985Y-77448000D01*
X166353014Y-77448000D01*
X166119085Y-77478799D01*
X165891162Y-77539870D01*
X165673180Y-77630160D01*
X165673171Y-77630165D01*
X165468828Y-77748144D01*
X165468818Y-77748150D01*
X165387275Y-77810720D01*
X165387275Y-77810721D01*
X166108706Y-78532152D01*
X166092058Y-78539049D01*
X165961030Y-78626599D01*
X165849599Y-78738030D01*
X165762049Y-78869058D01*
X165755152Y-78885706D01*
X165033721Y-78164275D01*
X165033720Y-78164275D01*
X164971150Y-78245818D01*
X164971144Y-78245828D01*
X164853165Y-78450171D01*
X164853160Y-78450180D01*
X164762870Y-78668162D01*
X164701799Y-78896085D01*
X164671000Y-79130014D01*
X163471500Y-79130014D01*
X163471500Y-79129989D01*
X163440693Y-78895986D01*
X163379606Y-78668007D01*
X163289284Y-78449951D01*
X163289282Y-78449948D01*
X163289280Y-78449943D01*
X163188113Y-78274717D01*
X163171500Y-78212717D01*
X163171500Y-76300500D01*
X163191185Y-76233461D01*
X163243989Y-76187706D01*
X163295500Y-76176500D01*
X167508740Y-76176500D01*
X167565036Y-76190015D01*
X167572008Y-76193568D01*
X167796631Y-76266553D01*
X167884109Y-76280408D01*
X168029903Y-76303500D01*
X168029908Y-76303500D01*
X168266097Y-76303500D01*
X168499368Y-76266553D01*
X168723992Y-76193568D01*
X168934433Y-76086343D01*
X169125510Y-75947517D01*
X169292517Y-75780510D01*
X169431343Y-75589433D01*
X169538568Y-75378992D01*
X169611553Y-75154368D01*
X169622281Y-75086632D01*
X169648500Y-74921097D01*
X169648500Y-74684902D01*
X169612956Y-74460490D01*
X169611553Y-74451631D01*
X169538568Y-74227008D01*
X169431343Y-74016566D01*
X169292517Y-73825490D01*
X168998510Y-73531483D01*
X168807434Y-73392657D01*
X168596996Y-73285433D01*
X168372368Y-73212446D01*
X168139097Y-73175500D01*
X168139092Y-73175500D01*
X162551092Y-73175500D01*
X162314908Y-73175500D01*
X162314903Y-73175500D01*
X162081631Y-73212446D01*
X161857003Y-73285433D01*
X161646563Y-73392659D01*
X161455496Y-73531476D01*
X161455491Y-73531480D01*
X160526485Y-74460487D01*
X160526484Y-74460488D01*
X160387657Y-74651565D01*
X160355688Y-74714309D01*
X160280433Y-74862003D01*
X160207446Y-75086631D01*
X160170500Y-75319902D01*
X160170500Y-78212717D01*
X160153887Y-78274717D01*
X160052719Y-78449943D01*
X160052714Y-78449954D01*
X159962394Y-78668006D01*
X159901306Y-78895989D01*
X159870501Y-79129979D01*
X159870500Y-79129995D01*
X158671499Y-79129995D01*
X158671499Y-78147992D01*
X158660999Y-78045203D01*
X158605814Y-77878666D01*
X158513712Y-77729344D01*
X158407818Y-77623450D01*
X158374334Y-77562127D01*
X158371500Y-77535769D01*
X158371500Y-75692447D01*
X158391185Y-75625408D01*
X158395165Y-75619585D01*
X158509343Y-75462433D01*
X158616568Y-75251992D01*
X158689553Y-75027368D01*
X158706385Y-74921097D01*
X158726500Y-74794097D01*
X158726500Y-74557902D01*
X158689553Y-74324634D01*
X158689553Y-74324631D01*
X158616568Y-74100008D01*
X158509343Y-73889566D01*
X158370518Y-73698490D01*
X158203510Y-73531482D01*
X158012434Y-73392657D01*
X157801992Y-73285432D01*
X157577369Y-73212447D01*
X157577367Y-73212446D01*
X157577365Y-73212446D01*
X157344097Y-73175500D01*
X157344092Y-73175500D01*
X157107908Y-73175500D01*
X157107903Y-73175500D01*
X156874631Y-73212446D01*
X156650003Y-73285433D01*
X156439563Y-73392659D01*
X156248496Y-73531476D01*
X156248491Y-73531480D01*
X155726485Y-74053487D01*
X155726484Y-74053488D01*
X155587659Y-74244562D01*
X155587657Y-74244566D01*
X155585164Y-74249459D01*
X155480433Y-74455003D01*
X155407446Y-74679631D01*
X155370500Y-74912902D01*
X155370500Y-77535769D01*
X155350815Y-77602808D01*
X155334182Y-77623450D01*
X155228287Y-77729345D01*
X155136187Y-77878663D01*
X155136186Y-77878666D01*
X155081001Y-78045203D01*
X155081001Y-78045204D01*
X155081000Y-78045204D01*
X155070500Y-78147983D01*
X150816888Y-78147983D01*
X150816929Y-78143664D01*
X150894798Y-69889444D01*
X153495643Y-69889444D01*
X170878102Y-69889444D01*
X170878102Y-64435966D01*
X153495643Y-64435966D01*
X153495643Y-69889444D01*
X150894798Y-69889444D01*
X151006898Y-58006774D01*
X151027214Y-57939926D01*
X151034912Y-57929437D01*
X153506461Y-54908657D01*
X153564147Y-54869239D01*
X153600696Y-54863193D01*
X158694066Y-54791957D01*
X158761374Y-54810702D01*
X158807863Y-54862861D01*
X158818773Y-54931874D01*
X158790639Y-54995829D01*
X158752095Y-55026430D01*
X158598565Y-55104657D01*
X158407488Y-55243484D01*
X156081484Y-57569488D01*
X155942657Y-57760565D01*
X155896297Y-57851553D01*
X155835433Y-57971003D01*
X155762446Y-58195631D01*
X155725500Y-58428902D01*
X155725500Y-59554097D01*
X155762446Y-59787368D01*
X155835433Y-60011996D01*
X155911825Y-60161922D01*
X155942657Y-60222433D01*
X156081483Y-60413510D01*
X156248490Y-60580517D01*
X156439567Y-60719343D01*
X156538991Y-60770002D01*
X156650003Y-60826566D01*
X156650005Y-60826566D01*
X156650008Y-60826568D01*
X156770412Y-60865689D01*
X156874631Y-60899553D01*
X157107903Y-60936500D01*
X157107908Y-60936500D01*
X157344097Y-60936500D01*
X157577368Y-60899553D01*
X157801992Y-60826568D01*
X158012433Y-60719343D01*
X158203510Y-60580517D01*
X158370517Y-60413510D01*
X158509343Y-60222433D01*
X158616568Y-60011992D01*
X158689553Y-59787368D01*
X158726500Y-59554097D01*
X158726500Y-59333682D01*
X161133000Y-59333682D01*
X161133000Y-59538317D01*
X161165009Y-59740417D01*
X161228244Y-59935031D01*
X161321141Y-60117350D01*
X161321147Y-60117359D01*
X161353523Y-60161921D01*
X161353524Y-60161922D01*
X162033000Y-59482446D01*
X162033000Y-59488661D01*
X162060259Y-59590394D01*
X162112920Y-59681606D01*
X162187394Y-59756080D01*
X162278606Y-59808741D01*
X162380339Y-59836000D01*
X162386553Y-59836000D01*
X161707076Y-60515474D01*
X161751650Y-60547859D01*
X161933968Y-60640755D01*
X162128582Y-60703990D01*
X162330683Y-60736000D01*
X162535317Y-60736000D01*
X162737417Y-60703990D01*
X162932031Y-60640755D01*
X163114349Y-60547859D01*
X163158921Y-60515474D01*
X162479447Y-59836000D01*
X162485661Y-59836000D01*
X162587394Y-59808741D01*
X162678606Y-59756080D01*
X162753080Y-59681606D01*
X162805741Y-59590394D01*
X162833000Y-59488661D01*
X162833000Y-59482448D01*
X163512474Y-60161922D01*
X163512474Y-60161921D01*
X163544859Y-60117349D01*
X163637755Y-59935031D01*
X163700990Y-59740417D01*
X163733000Y-59538317D01*
X163733000Y-59333682D01*
X163700990Y-59131582D01*
X163637755Y-58936968D01*
X163544859Y-58754650D01*
X163512474Y-58710077D01*
X163512474Y-58710076D01*
X162833000Y-59389551D01*
X162833000Y-59383339D01*
X162805741Y-59281606D01*
X162753080Y-59190394D01*
X162678606Y-59115920D01*
X162587394Y-59063259D01*
X162485661Y-59036000D01*
X162479446Y-59036000D01*
X163158922Y-58356524D01*
X163158921Y-58356523D01*
X163114359Y-58324147D01*
X163114350Y-58324141D01*
X162932031Y-58231244D01*
X162737417Y-58168009D01*
X162530500Y-58135237D01*
X162530728Y-58133796D01*
X162471530Y-58111238D01*
X162430541Y-58055669D01*
X162413172Y-58093703D01*
X162354394Y-58131477D01*
X162335456Y-58134962D01*
X162335500Y-58135237D01*
X162128582Y-58168009D01*
X161933968Y-58231244D01*
X161751644Y-58324143D01*
X161707077Y-58356523D01*
X161707077Y-58356524D01*
X162386554Y-59036000D01*
X162380339Y-59036000D01*
X162278606Y-59063259D01*
X162187394Y-59115920D01*
X162112920Y-59190394D01*
X162060259Y-59281606D01*
X162033000Y-59383339D01*
X162033000Y-59389553D01*
X161353524Y-58710077D01*
X161353523Y-58710077D01*
X161321143Y-58754644D01*
X161228244Y-58936968D01*
X161165009Y-59131582D01*
X161133000Y-59333682D01*
X158726500Y-59333682D01*
X158726500Y-59219889D01*
X158746185Y-59152850D01*
X158762819Y-59132208D01*
X159970208Y-57924819D01*
X160031531Y-57891334D01*
X160057889Y-57888500D01*
X162319459Y-57888500D01*
X162386498Y-57908185D01*
X162432253Y-57960989D01*
X162433652Y-57970719D01*
X162459483Y-57924200D01*
X162521041Y-57891150D01*
X162546541Y-57888500D01*
X164654398Y-57888500D01*
X164721437Y-57908185D01*
X164767192Y-57960989D01*
X164776870Y-57993097D01*
X164779036Y-58006774D01*
X164779448Y-58009374D01*
X164852433Y-58233996D01*
X164951743Y-58428902D01*
X164959657Y-58444434D01*
X165098483Y-58635510D01*
X167170490Y-60707517D01*
X167361567Y-60846343D01*
X167460991Y-60897002D01*
X167572003Y-60953566D01*
X167572005Y-60953566D01*
X167572008Y-60953568D01*
X167692412Y-60992689D01*
X167796631Y-61026553D01*
X168029903Y-61063500D01*
X168029908Y-61063500D01*
X168266097Y-61063500D01*
X168395690Y-61042973D01*
X168499369Y-61026553D01*
X168723992Y-60953568D01*
X168934434Y-60846343D01*
X169125510Y-60707517D01*
X169292517Y-60540510D01*
X169431343Y-60349434D01*
X169538568Y-60138992D01*
X169611553Y-59914369D01*
X169631668Y-59787368D01*
X169648500Y-59681097D01*
X169648500Y-59444902D01*
X169611553Y-59211631D01*
X169569578Y-59082446D01*
X169538568Y-58987008D01*
X169538566Y-58987005D01*
X169538566Y-58987003D01*
X169431342Y-58776566D01*
X169415415Y-58754644D01*
X169292517Y-58585490D01*
X167779819Y-57072792D01*
X167746334Y-57011469D01*
X167743500Y-56985111D01*
X167743500Y-56523902D01*
X167706553Y-56290631D01*
X167688654Y-56235544D01*
X167633568Y-56066008D01*
X167618600Y-56036632D01*
X167526343Y-55855566D01*
X167387517Y-55664490D01*
X166966510Y-55243483D01*
X166775434Y-55104657D01*
X166564996Y-54997433D01*
X166346199Y-54926341D01*
X166288524Y-54886903D01*
X166261326Y-54822544D01*
X166273241Y-54753698D01*
X166320485Y-54702222D01*
X166382781Y-54684422D01*
X171577706Y-54611766D01*
X171645013Y-54630511D01*
G37*
%TD.AperFunction*%
%TD*%
M02*
